<svg xmlns="http://www.w3.org/2000/svg" viewBox="0 0 512 512">
  <path fill="#f0f5f9"
    d="M359.92 25.79v460.42c-5.26 2.38-10.61 4.55-16.07 6.57a253.33 253.33 0 0 1-175.7 0c-5.46-2-10.81-4.19-16.07-6.57V25.79c5.26-2.38 10.61-4.55 16.07-6.57a253.33 253.33 0 0 1 175.7 0c5.46 2.02 10.81 4.19 16.07 6.57Z" />
  <path fill="#ef2b2d"
    d="M168.15 19.22v473.56c-5.46-2-10.81-4.19-16.07-6.57C64.47 446.58 3.5 358.38 3.5 256s61-190.58 148.58-230.21c5.26-2.38 10.61-4.55 16.07-6.57zM508.5 256c0 102.38-61 190.58-148.58 230.21-5.26 2.38-10.61 4.55-16.07 6.57V19.22c5.46 2 10.81 4.19 16.07 6.57C447.53 65.42 508.5 153.58 508.5 256z" />
  <path fill="#fff"
    d="M396.14 72.8a228.17 228.17 0 0 0-149.23-48.69C123.24 28.27 24.36 131.9 25.7 255.63A228.44 228.44 0 0 0 36 321.18a20.86 20.86 0 0 0 20.57 14.72c251.13-8.56 328-184.12 346.33-240.69a20.51 20.51 0 0 0-6.76-22.41Z"
    opacity=".12" />
</svg>